<?xml version="1.0" encoding="UTF-8"?>
<svg xmlns="http://www.w3.org/2000/svg" xmlns:xlink="http://www.w3.org/1999/xlink" width="300pt" height="270pt" viewBox="0 0 300 270" version="1.1">
<g id="surface1">
<path style=" stroke:none;fill-rule:nonzero;fill:rgb(0%,0%,0%);fill-opacity:1;" d="M 26.101562 44.976562 L 25.515625 45.6875 L 24.1875 44.671875 C 23.867188 44.847656 23.519531 44.988281 23.144531 45.09375 C 22.773438 45.199219 22.367188 45.25 21.921875 45.25 C 20.585938 45.25 19.539062 44.8125 18.78125 43.9375 C 18.113281 43.085938 17.78125 42.023438 17.78125 40.742188 C 17.78125 39.578125 18.070312 38.578125 18.648438 37.75 C 19.390625 36.6875 20.488281 36.15625 21.941406 36.15625 C 23.460938 36.15625 24.585938 36.648438 25.316406 37.625 C 25.886719 38.386719 26.171875 39.359375 26.171875 40.546875 C 26.171875 41.101562 26.101562 41.632812 25.96875 42.148438 C 25.761719 42.929688 25.410156 43.5625 24.917969 44.054688 Z M 22.742188 44.160156 C 22.953125 44.125 23.140625 44.0625 23.296875 43.960938 L 22.351562 43.226562 L 22.9375 42.503906 L 24.0625 43.375 C 24.417969 42.96875 24.660156 42.515625 24.785156 42.011719 C 24.914062 41.507812 24.976562 41.023438 24.976562 40.5625 C 24.976562 39.550781 24.710938 38.738281 24.183594 38.121094 C 23.652344 37.503906 22.929688 37.195312 22.011719 37.195312 C 21.082031 37.195312 20.34375 37.492188 19.804688 38.082031 C 19.261719 38.675781 18.988281 39.585938 18.988281 40.816406 C 18.988281 41.851562 19.25 42.675781 19.769531 43.289062 C 20.292969 43.902344 21.054688 44.210938 22.0625 44.210938 C 22.304688 44.210938 22.53125 44.191406 22.742188 44.160156 Z M 28.476562 38.726562 L 28.476562 42.890625 C 28.476562 43.210938 28.527344 43.472656 28.628906 43.675781 C 28.816406 44.050781 29.164062 44.238281 29.679688 44.238281 C 30.414062 44.238281 30.914062 43.910156 31.179688 43.253906 C 31.324219 42.902344 31.394531 42.421875 31.394531 41.804688 L 31.394531 38.726562 L 32.449219 38.726562 L 32.449219 45 L 31.453125 45 L 31.464844 44.074219 C 31.328125 44.3125 31.15625 44.515625 30.953125 44.679688 C 30.550781 45.007812 30.0625 45.171875 29.492188 45.171875 C 28.597656 45.171875 27.984375 44.871094 27.664062 44.273438 C 27.488281 43.953125 27.398438 43.523438 27.398438 42.992188 L 27.398438 38.726562 Z M 35.148438 38.726562 L 35.148438 42.890625 C 35.148438 43.210938 35.199219 43.472656 35.300781 43.675781 C 35.488281 44.050781 35.835938 44.238281 36.351562 44.238281 C 37.085938 44.238281 37.585938 43.910156 37.851562 43.253906 C 37.996094 42.902344 38.066406 42.421875 38.066406 41.804688 L 38.066406 38.726562 L 39.121094 38.726562 L 39.121094 45 L 38.125 45 L 38.136719 44.074219 C 38 44.3125 37.828125 44.515625 37.625 44.679688 C 37.222656 45.007812 36.734375 45.171875 36.164062 45.171875 C 35.269531 45.171875 34.65625 44.871094 34.335938 44.273438 C 34.160156 43.953125 34.070312 43.523438 34.070312 42.992188 L 34.070312 38.726562 Z M 44.671875 38.898438 C 45.089844 39.105469 45.410156 39.375 45.628906 39.710938 C 45.839844 40.027344 45.980469 40.394531 46.050781 40.816406 C 46.113281 41.105469 46.144531 41.566406 46.144531 42.199219 L 41.546875 42.199219 C 41.566406 42.835938 41.714844 43.347656 41.996094 43.730469 C 42.277344 44.117188 42.710938 44.308594 43.304688 44.308594 C 43.855469 44.308594 44.292969 44.125 44.621094 43.765625 C 44.808594 43.554688 44.941406 43.308594 45.019531 43.03125 L 46.054688 43.03125 C 46.027344 43.261719 45.9375 43.519531 45.785156 43.800781 C 45.628906 44.085938 45.457031 44.316406 45.265625 44.496094 C 44.945312 44.808594 44.546875 45.019531 44.078125 45.128906 C 43.824219 45.191406 43.535156 45.222656 43.214844 45.222656 C 42.433594 45.222656 41.773438 44.9375 41.226562 44.371094 C 40.683594 43.800781 40.414062 43.007812 40.414062 41.984375 C 40.414062 40.976562 40.6875 40.15625 41.234375 39.527344 C 41.78125 38.898438 42.496094 38.585938 43.378906 38.585938 C 43.824219 38.585938 44.257812 38.6875 44.671875 38.898438 Z M 45.0625 41.359375 C 45.019531 40.902344 44.917969 40.539062 44.761719 40.265625 C 44.472656 39.757812 43.992188 39.503906 43.3125 39.503906 C 42.828125 39.503906 42.421875 39.679688 42.09375 40.027344 C 41.765625 40.378906 41.59375 40.820312 41.574219 41.359375 Z M 51.347656 38.898438 C 51.765625 39.105469 52.085938 39.375 52.304688 39.710938 C 52.515625 40.027344 52.65625 40.394531 52.726562 40.816406 C 52.789062 41.105469 52.820312 41.566406 52.820312 42.199219 L 48.222656 42.199219 C 48.242188 42.835938 48.390625 43.347656 48.671875 43.730469 C 48.953125 44.117188 49.386719 44.308594 49.980469 44.308594 C 50.53125 44.308594 50.96875 44.125 51.296875 43.765625 C 51.484375 43.554688 51.617188 43.308594 51.695312 43.03125 L 52.730469 43.03125 C 52.703125 43.261719 52.613281 43.519531 52.460938 43.800781 C 52.304688 44.085938 52.132812 44.316406 51.941406 44.496094 C 51.621094 44.808594 51.222656 45.019531 50.753906 45.128906 C 50.5 45.191406 50.210938 45.222656 49.890625 45.222656 C 49.109375 45.222656 48.449219 44.9375 47.902344 44.371094 C 47.359375 43.800781 47.089844 43.007812 47.089844 41.984375 C 47.089844 40.976562 47.363281 40.15625 47.910156 39.527344 C 48.457031 38.898438 49.171875 38.585938 50.054688 38.585938 C 50.5 38.585938 50.933594 38.6875 51.347656 38.898438 Z M 51.738281 41.359375 C 51.695312 40.902344 51.59375 40.539062 51.4375 40.265625 C 51.148438 39.757812 50.667969 39.503906 49.988281 39.503906 C 49.503906 39.503906 49.097656 39.679688 48.769531 40.027344 C 48.441406 40.378906 48.269531 40.820312 48.25 41.359375 Z M 54.117188 38.726562 L 55.117188 38.726562 L 55.117188 39.617188 C 55.414062 39.25 55.730469 38.984375 56.0625 38.824219 C 56.394531 38.664062 56.765625 38.585938 57.171875 38.585938 C 58.0625 38.585938 58.664062 38.894531 58.976562 39.515625 C 59.148438 39.855469 59.234375 40.34375 59.234375 40.976562 L 59.234375 45 L 58.160156 45 L 58.160156 41.046875 C 58.160156 40.664062 58.101562 40.351562 57.992188 40.117188 C 57.804688 39.726562 57.460938 39.53125 56.96875 39.53125 C 56.71875 39.53125 56.515625 39.558594 56.355469 39.609375 C 56.066406 39.695312 55.8125 39.867188 55.59375 40.125 C 55.417969 40.332031 55.304688 40.546875 55.25 40.765625 C 55.199219 40.988281 55.171875 41.304688 55.171875 41.710938 L 55.171875 45 L 54.117188 45 Z M 64.710938 38.726562 L 65.875 38.726562 C 65.726562 39.128906 65.398438 40.046875 64.882812 41.476562 C 64.5 42.554688 64.179688 43.4375 63.921875 44.117188 C 63.3125 45.71875 62.882812 46.695312 62.632812 47.046875 C 62.382812 47.398438 61.953125 47.570312 61.34375 47.570312 C 61.195312 47.570312 61.082031 47.566406 61.003906 47.554688 C 60.921875 47.542969 60.824219 47.523438 60.707031 47.492188 L 60.707031 46.53125 C 60.890625 46.582031 61.023438 46.609375 61.105469 46.625 C 61.1875 46.636719 61.257812 46.640625 61.320312 46.640625 C 61.515625 46.640625 61.660156 46.609375 61.753906 46.542969 C 61.84375 46.480469 61.921875 46.398438 61.984375 46.304688 C 62.003906 46.273438 62.074219 46.117188 62.195312 45.828125 C 62.316406 45.539062 62.40625 45.320312 62.460938 45.179688 L 60.140625 38.726562 L 61.335938 38.726562 L 63.015625 43.835938 Z M 67.164062 39.058594 L 67.164062 38.25 C 67.925781 38.175781 68.457031 38.050781 68.757812 37.878906 C 69.058594 37.703125 69.28125 37.292969 69.429688 36.644531 L 70.265625 36.644531 L 70.265625 45 L 69.140625 45 L 69.140625 39.058594 Z M 72.6875 45 "/>
<path style="fill:none;stroke-width:1;stroke-linecap:round;stroke-linejoin:miter;stroke:rgb(0%,0%,0%);stroke-opacity:1;stroke-miterlimit:10;" d="M 87.5 45 C 87.5 59.195312 80.414062 72.453125 68.613281 80.335938 C 56.808594 88.222656 41.851562 89.695312 28.734375 84.265625 C 15.621094 78.832031 6.085938 67.210938 3.316406 53.292969 C 0.546875 39.371094 4.910156 24.984375 14.949219 14.949219 C 24.984375 4.910156 39.371094 0.546875 53.292969 3.316406 C 67.210938 6.085938 78.832031 15.621094 84.265625 28.734375 C 89.695312 41.851562 88.222656 56.808594 80.335938 68.613281 C 72.453125 80.414062 59.195312 87.5 45 87.5 "/>
</g>
</svg>
